<svg width="278" height="143" viewBox="0 0 278 143" fill="none" xmlns="http://www.w3.org/2000/svg">
<path d="M77.0107 39.3158L80.4616 36.5599L78.7587 45.9827H74.668L75.0104 36.5599H108.195L108.511 45.9827H104.438L102.735 36.5599L106.168 39.3158H77.0107ZM92.4994 67.6878L101.014 68.4604V70.8898H82.1826V68.4604L90.6163 67.6878H92.4994ZM87.796 52.6018C87.796 47.2731 87.796 41.8886 87.6248 36.5599H95.5629C95.3917 41.785 95.3917 47.1695 95.3917 52.6018V54.832C95.3917 60.1846 95.3917 65.5611 95.5629 70.8978H87.6248C87.796 65.6726 87.796 60.2882 87.796 54.8559V52.6097V52.6018Z" fill="white"/>
<path d="M113.566 60.0253V57.2853C113.566 54.4417 113.511 53.1195 113.394 51.0485L109.268 50.5865V48.659L119.053 45.3853L119.999 45.919L120.612 52.3309V60.0253C120.612 63.2353 120.666 68.564 120.783 70.8898H113.385C113.502 68.564 113.556 63.2273 113.556 60.0253H113.566ZM109.727 68.779L115.737 67.7436H119.44L125.45 68.779V70.8978H109.727V68.779ZM117.26 53.1115H121.134L120.017 54.0036C121.459 48.4121 125.288 45.3773 128.766 45.3773C130.892 45.3773 132.803 46.365 133.397 48.1811C133.334 50.7459 131.956 52.1876 129.613 52.1876C128.054 52.1876 126.811 51.5663 125.585 50.3556L123.936 48.7625L126.549 48.89C123.693 50.3954 121.585 53.0558 120.54 56.5843L117.26 56.3932V53.0956V53.1115Z" fill="white"/>
<path d="M139.263 70.8898C139.38 68.564 139.443 63.2273 139.443 60.0253V57.572C139.443 54.7284 139.38 53.1195 139.263 51.0485L135.064 50.5865V48.659L145.643 45.3853L146.589 45.919L146.417 53.1673V60.0173C146.417 63.2273 146.472 68.556 146.589 70.8818H139.263V70.8898ZM150.04 68.779V70.8978H135.524V68.779L141.444 67.7436H144.273L150.04 68.779ZM138.416 36.8625C138.416 34.6721 140.372 33.1667 142.84 33.1667C145.309 33.1667 147.264 34.6721 147.264 36.8625C147.264 39.053 145.309 40.5584 142.84 40.5584C140.372 40.5584 138.416 39.0211 138.416 36.8625Z" fill="white"/>
<path d="M175.385 75.6371C175.385 73.7254 174.007 72.1164 170.285 72.1164H163.762C161.969 72.1164 160.338 71.989 159.139 71.6385V71.3916C156.157 70.6907 154.778 69.1932 154.778 67.1302C154.778 64.8602 156.535 62.6857 160.338 59.8979L161.752 60.7103C160.446 62.0405 159.86 63.0282 159.86 64.446C159.86 65.7443 160.635 66.5886 163.257 66.5886H170.538C178.151 66.5886 181.206 69.3446 181.206 73.6856C181.206 78.5523 175.827 82.965 165.438 82.965C156.364 82.965 153.103 80.225 153.103 76.784C153.103 74.2511 155.067 72.2757 160.23 70.4915L160.797 70.8818C159.013 72.674 158.311 73.8608 158.311 75.6928C158.311 78.9346 161.041 80.2648 165.987 80.2648C172.15 80.2648 175.367 78.2257 175.367 75.6371H175.385ZM165.834 45.3853C173.006 45.3853 177.178 48.5236 177.178 53.8124C177.178 59.1013 172.934 62.1839 165.798 62.1839C158.662 62.1839 154.418 59.0296 154.418 53.8124C154.418 48.5953 158.662 45.3853 165.834 45.3853ZM160.896 53.8124C160.896 57.5322 162.527 59.9297 165.69 59.9297C168.853 59.9297 170.745 57.4366 170.745 53.677C170.745 49.9175 169.006 47.6394 165.87 47.6394C162.735 47.6394 160.896 50.0847 160.896 53.8045V53.8124ZM180.737 45.3295L181.638 45.8473V49.4555H173.142V47.9023L180.737 45.3295Z" fill="white"/>
<path d="M183.981 58.5039C183.981 50.2361 190.532 45.3853 198.101 45.3853C205.669 45.3853 212.22 50.1803 212.22 58.5039C212.22 66.8275 205.958 71.6226 198.101 71.6226C190.244 71.6226 183.981 66.7718 183.981 58.5039ZM204.588 58.5597C204.588 51.4149 202.272 47.9023 198.101 47.9023C193.929 47.9023 191.613 51.4149 191.613 58.5597C191.613 65.7044 193.857 69.1056 198.101 69.1056C202.345 69.1056 204.588 65.7283 204.588 58.5597Z" fill="white"/>
<path d="M48.6276 100.496L51.5289 98.1785L50.0962 106.104H46.6543L46.9426 98.1785H74.8656L75.136 106.104H71.712L70.2794 98.1785L73.1627 100.496H48.6276ZM61.6565 124.368L68.8287 125.021V127.068H52.9796V125.021L60.0707 124.368H61.6565ZM57.701 111.68C57.701 107.195 57.701 102.663 57.5568 98.1785H64.2425C64.0983 102.575 64.0983 107.108 64.0983 111.68V113.551C64.0983 118.052 64.0983 122.584 64.2425 127.068H57.5568C57.701 122.671 57.701 118.139 57.701 113.567V111.68Z" fill="white"/>
<path d="M79.3895 117.924V115.622C79.3895 113.225 79.3445 112.118 79.2453 110.373L75.7764 109.983V108.366L84.0118 105.61L84.8047 106.064L85.3273 111.457V117.924C85.3273 120.624 85.3724 125.109 85.4715 127.068H79.2453C79.3445 125.109 79.3895 120.624 79.3895 117.924ZM76.1638 125.284L81.2186 124.416H84.3362L89.391 125.284V127.06H76.1548V125.284H76.1638ZM82.4981 112.11H85.7598L84.8137 112.858C86.0301 108.151 89.2468 105.602 92.1752 105.602C93.9682 105.602 95.5721 106.438 96.0676 107.96C96.0136 110.118 94.8512 111.329 92.887 111.329C91.5715 111.329 90.5263 110.811 89.4991 109.792L88.1115 108.454L90.31 108.565C87.9043 109.832 86.1292 112.07 85.2552 115.041L82.4981 114.882V112.11Z" fill="white"/>
<path d="M106.132 115.288C108.186 114.698 111.484 113.902 113.872 113.456V115.152C111.601 115.606 108.817 116.339 107.357 116.897C104.041 118.068 103.059 119.629 103.059 121.294C103.059 123.54 104.564 124.503 106.528 124.503C107.853 124.503 108.736 124.049 111.06 122.568L112.556 121.58L113.16 122.353L111.403 123.986C108.736 126.407 107.132 127.69 103.843 127.69C100.14 127.69 97.3105 125.778 97.3105 122.186C97.3105 119.414 99.0225 117.343 106.132 115.304V115.288ZM110.826 123.285V112.858C110.826 108.796 109.718 107.705 106.519 107.705C105.348 107.705 103.978 107.832 101.996 108.406L104.69 106.877L103.879 110.254C103.6 112.349 102.428 113.281 100.807 113.281C99.1847 113.281 98.2746 112.58 98.0314 111.313C98.6261 107.84 102.428 105.586 108.456 105.586C114.16 105.586 116.647 107.793 116.647 113.456V122.958C116.647 124.36 117.187 124.91 118.106 124.91C118.782 124.91 119.251 124.599 119.809 123.954L120.954 124.814C119.773 126.837 118.224 127.578 115.881 127.578C112.844 127.578 111.033 125.929 110.817 123.261L110.826 123.285Z" fill="white"/>
<path d="M135.207 124.583C137.649 124.583 139.334 123.325 141.235 120.975L141.749 121.915C139.586 125.738 136.928 127.682 132.81 127.682C127.017 127.682 122.872 123.54 122.872 116.825C122.872 110.11 127.738 105.602 133.549 105.602C137.099 105.602 139.334 107.147 141.749 110.779L141.253 111.767C138.865 109.521 137.18 108.645 135.243 108.645C131.909 108.645 129.179 111.178 129.179 116.729C129.179 122.281 131.702 124.575 135.207 124.575V124.583ZM148.696 125.284V127.06L140.091 127.53L139.523 123.372V109.752L139.739 109.234V99.222L135.901 98.7839V97.1032L144.902 95.1438L145.65 95.5421L145.452 101.675V127.068L143.362 124.368L148.687 125.292L148.696 125.284Z" fill="white"/>
<path d="M154.365 127.068C154.464 125.109 154.509 120.624 154.509 117.924V115.861C154.509 113.464 154.464 112.118 154.365 110.373L150.833 109.983V108.366L159.735 105.61L160.528 106.064L160.384 112.165V117.932C160.384 120.632 160.429 125.117 160.528 127.076H154.365V127.068ZM163.438 125.284V127.06H151.22V125.284L156.203 124.416H158.582L163.438 125.284ZM153.653 98.4334C153.653 96.5855 155.302 95.319 157.375 95.319C159.447 95.319 161.096 96.5855 161.096 98.4334C161.096 100.281 159.447 101.548 157.375 101.548C155.302 101.548 153.653 100.257 153.653 98.4334Z" fill="white"/>
<path d="M172.683 116.092C172.683 121.341 175.692 124.217 180.071 124.217C182.675 124.217 184.811 123.125 186.279 121.317L187.73 122.257C186.108 125.842 182.756 127.682 178.107 127.682C171.376 127.682 166.475 123.691 166.475 116.698C166.475 109.704 172.16 105.61 178.783 105.61C183.585 105.61 187.225 108.247 187.721 111.592C187.334 112.922 186.451 113.535 184.946 113.535C183.162 113.535 182.026 112.572 181.738 110.469L180.9 107.004L183.838 108.709C182.234 108.008 180.756 107.697 179.287 107.697C175.746 107.697 172.674 110.349 172.674 116.084L172.683 116.092ZM176.981 126.901H179.152L178.675 130.318L177.422 129.291C181.234 129.53 183.513 130.876 183.513 133.074C183.513 135.272 181.459 136.746 177.449 136.746C175.962 136.746 174.872 136.531 173.998 136.26L174.431 134.603C175.296 134.771 176.035 134.842 176.918 134.842C178.765 134.842 179.63 134.125 179.63 133.018C179.63 131.704 178.53 131.091 176.296 130.868L176.972 126.893L176.981 126.901Z" fill="white"/>
<path d="M199.885 115.288C201.939 114.698 205.237 113.902 207.624 113.456V115.152C205.354 115.606 202.57 116.339 201.11 116.897C197.794 118.068 196.812 119.629 196.812 121.293C196.812 123.54 198.317 124.503 200.281 124.503C201.606 124.503 202.489 124.049 204.813 122.568L206.309 121.58L206.913 122.353L205.156 123.986C202.489 126.407 200.885 127.69 197.596 127.69C193.893 127.69 191.063 125.778 191.063 122.186C191.063 119.414 192.775 117.343 199.885 115.304V115.288ZM204.579 123.285V112.858C204.579 108.796 203.471 107.705 200.272 107.705C199.101 107.705 197.731 107.832 195.749 108.406L198.443 106.877L197.632 110.254C197.353 112.349 196.181 113.281 194.559 113.281C192.938 113.281 192.028 112.58 191.784 111.313C192.379 107.84 196.181 105.586 202.218 105.586C207.922 105.586 210.409 107.793 210.409 113.456V122.958C210.409 124.36 210.949 124.91 211.868 124.91C212.544 124.91 213.013 124.599 213.571 123.954L214.716 124.814C213.535 126.837 211.985 127.578 209.643 127.578C206.606 127.578 204.795 125.929 204.579 123.261V123.285ZM198.326 95.6854C199.876 95.6854 200.921 96.3147 201.939 97.0076C202.984 97.7643 203.975 98.76 205.246 98.76C206.687 98.76 207.642 97.605 208.3 95.7093L209.958 96.2749C209.381 99.8672 207.688 102.105 204.93 102.105C203.417 102.105 202.236 101.476 201.245 100.783C200.2 100.026 199.227 99.0308 197.938 99.0308C196.497 99.0308 195.56 100.186 194.902 102.066L193.244 101.5C193.785 97.8918 195.542 95.6854 198.326 95.6854Z" fill="white"/>
<path d="M216.626 116.642C216.626 109.688 222.14 105.602 228.511 105.602C234.881 105.602 240.395 109.632 240.395 116.642C240.395 123.651 235.124 127.682 228.511 127.682C221.897 127.682 216.626 123.595 216.626 116.642ZM233.971 116.69C233.971 110.676 232.016 107.721 228.511 107.721C225.006 107.721 223.05 110.676 223.05 116.69C223.05 122.703 224.943 125.563 228.511 125.563C232.079 125.563 233.971 122.719 233.971 116.69Z" fill="white"/>
<path d="M254.784 69.2808L255.586 71.6067M252.468 65.7762C249.594 63.3707 250.693 58.6632 253.306 56.2498M266.326 8.68967C271.057 13.7316 269.11 20.1117 264.299 24.5085C264.065 24.7236 263.173 25.775 262.83 25.4643C260.226 19.6099 261.001 13.19 266.326 8.68967ZM257.604 1.1546L260.614 3.88666C260.875 4.12562 261.839 6.38773 261.992 6.87361C263.101 10.2827 261.704 14.5441 259.055 17.1567C253.829 12.5846 253.009 6.3479 257.604 1.1546ZM264.254 35.8032C260.695 29.6381 266.263 23.2182 271.228 19.1559C272.886 21.8083 273.219 24.7873 271.94 27.6229C271.669 28.2123 270.282 30.6178 269.903 30.9444L264.263 35.8032H264.254ZM273.372 30.5143C277.598 36.6475 270.687 43.0993 265.569 46.7792C261.362 40.6779 267.308 33.6127 273.372 30.5143ZM251.126 12.9829C256.307 14.8308 261.524 20.7569 260.722 25.8228C260.668 26.1494 260.848 26.4202 260.388 26.6512C255.235 24.1103 248.243 18.6939 251.117 12.9829H251.126ZM275.526 41.1398C276.319 41.2673 276.283 44.1666 276.211 44.764C275.634 49.5989 270.579 53.8921 266.254 56.4569C261.812 50.6264 269.669 43.4577 275.517 41.1398H275.526ZM250.982 22.2783C255.253 24.5085 261.704 28.507 260.974 33.3977C255.523 33.5012 246.792 27.3123 250.982 22.2783ZM260.226 36.4085C261.632 37.8582 263.344 40.423 263.227 42.3904C263.146 43.8719 262.848 44.302 261.29 43.856C256.163 42.3824 247.792 37.0537 251.009 31.5179C254.171 31.8524 258.154 34.2898 260.217 36.4085H260.226ZM265.93 63.1397C266.155 60.774 267.516 58.0738 269.165 56.21C269.985 55.278 275.165 50.722 276.103 51.4627C277.481 56.0586 274.373 62.2715 269.822 64.669C267.11 66.0948 265.623 66.3576 265.921 63.1476L265.93 63.1397ZM261.974 47.0181C263.551 48.8661 264.443 51.2716 263.614 53.5496C263.038 54.2266 260.316 52.8805 259.704 52.5619C256.28 50.7857 252.198 47.3367 251.486 43.7365C250.928 40.9088 252.171 40.7734 254.811 41.7293C257.46 42.693 260.253 45.0029 261.974 47.0181ZM267.669 75.3822C264.191 70.4039 271.264 64.8363 275.643 62.3272C278.571 67.409 273.562 74.1077 267.669 75.3822ZM235.781 27.3043C239.809 30.0921 239.584 33.8676 236.899 37.3484C234.313 34.6482 233.448 30.3629 235.781 27.3043ZM241.584 32.9437C244.179 35.7394 244.287 37.7467 243.134 41.0443C242.908 41.6815 241.44 45.1463 240.989 45.2021C238.142 41.4027 236.754 36.058 241.593 32.9437H241.584ZM232.961 33.0313C229.501 31.2232 225.582 26.8981 227.735 23.2261C231.979 24.5165 234.844 29.2558 232.961 33.0313ZM245.909 39.1326C249.531 42.6134 248.81 47.9819 245.107 51.1999C241.764 47.6235 242.539 42.5019 245.909 39.1326ZM253.523 50.937C257.496 52.2194 261.29 54.8559 263.326 58.1853C264.2 59.6191 265.074 61.9927 263.767 63.4025C262.767 64.1114 259.181 61.9688 258.316 61.2997C255.469 59.1013 251.108 54.2824 253.523 50.937ZM275.301 71.7978C278.175 76.8557 273.985 83.9925 268.047 85.5219C264.506 80.448 270.994 74.737 275.301 71.7978ZM233.772 35.3651C235.898 37.8502 236.826 40.9965 231.934 39.1645C229.663 38.3122 227.519 36.3846 226.591 34.3535C226.122 33.318 225.546 32.0914 227.203 31.9241C229.402 31.7011 232.52 33.8995 233.772 35.3651ZM241.142 47.2491C240.881 48.3882 236.421 47.2412 235.601 46.8987C232.312 45.5605 228.789 42.6771 229.195 39.2123C234.222 40.0247 239.286 42.8922 241.142 47.2412V47.2491ZM263.164 66.1824C264.957 68.1577 266.561 71.1447 264.659 73.4705C260.515 73.4546 251.928 64.9318 254.595 61.8015C255.099 61.1006 257.37 62.1361 258.082 62.4865C259.884 63.3786 261.875 64.7646 263.164 66.1903V66.1824ZM244.251 52.769C244.53 53.1274 245.594 55.5409 245.359 55.748C240.629 55.1825 234.204 52.9841 233.736 48.1731C237.737 47.3686 242.052 49.9414 244.26 52.761L244.251 52.769ZM248.134 60.4315C248.828 61.3236 249.108 62.7175 249.234 63.7849C244.692 62.6936 237.502 60.2085 238.016 55.1187C241.818 55.5329 245.918 57.6118 248.134 60.4315ZM256.802 71.2243C261.677 73.5422 268.894 77.8832 265.56 83.4668C261.569 82.7022 258.253 79.0621 256.956 75.7804C256.694 75.1114 255.604 71.4075 256.802 71.2243ZM251.802 67.5365C252.613 68.5241 252.946 69.6791 252.91 70.8898C248.702 69.934 243.368 67.632 242.935 63.3468C245.693 62.9883 250.234 65.6407 251.802 67.5365ZM247.558 70.3721C250.928 71.6863 256.271 73.1519 255.721 77.1982C252.387 78.1541 248.855 75.2468 247.621 72.6899C247.468 72.3713 246.954 70.38 247.558 70.3721Z" stroke="white" stroke-width="1.40067" stroke-miterlimit="10"/>
<path d="M252.206 45.0826C248.17 48.6988 247.016 55.5409 248.99 58.8624" stroke="white" stroke-width="2.85453" stroke-miterlimit="10"/>
<path d="M243.323 142.608C258.929 125.125 263.56 103.874 264.344 82.1048C265.2 60.5988 262.389 38.9733 259.497 17.6426C261.164 25.2812 262.777 33.8836 263.912 41.6496C265.858 54.9515 266.966 68.7472 266.489 82.1685C265.786 103.651 260.2 126.335 243.323 142.6V142.608Z" fill="white"/>
<path d="M263.208 95.6376C256.72 74.7688 246.449 54.8877 233.528 36.5359C232.663 35.3093 231.807 34.0747 230.96 32.8242C231.987 33.9552 233.005 35.0863 234.014 36.2333C248.566 53.1195 259.694 74.5617 263.199 95.6296L263.208 95.6376Z" fill="white"/>
<path d="M253.504 67.0506L254.09 63.2114L253.784 67.8869L253.631 69.0339L253.739 69.934L252.648 66.27" fill="white"/>
<path d="M253.504 67.0506L254.09 63.2114L253.784 67.8869L253.631 69.0339L253.739 69.934L252.648 66.27" stroke="white" stroke-width="3.57259" stroke-miterlimit="10"/>
<path d="M254.893 66.9312L255.28 70.7146" stroke="white" stroke-width="3.57259" stroke-miterlimit="10"/>
<path d="M22.4211 69.1215L21.6192 71.4474M24.7368 65.6169C27.6111 63.2114 26.5118 58.5039 23.8988 56.0905M10.8789 8.53037C6.14846 13.5723 8.09469 19.9524 12.9062 24.3492C13.1405 24.5643 14.0325 25.6157 14.3749 25.305C16.9789 19.4506 16.204 13.0307 10.8789 8.53037ZM19.6009 0.9953L16.5914 3.72736C16.3301 3.96631 15.366 6.22843 15.2129 6.7143C14.1046 10.1234 15.5012 14.3848 18.1502 16.9974C23.3762 12.4253 24.1962 6.1886 19.6009 0.9953ZM12.9513 35.6439C16.5103 29.4788 10.942 23.0589 5.97726 18.9966C4.31936 21.649 3.98598 24.628 5.26545 27.4636C5.53576 28.053 6.92335 30.4585 7.30178 30.7851L12.9423 35.6439H12.9513ZM3.8328 30.355C-0.393044 36.4882 6.51788 42.94 11.6358 46.6199C15.8436 40.5186 9.89676 33.4534 3.8328 30.355ZM26.0793 12.8236C20.8984 14.6715 15.6814 20.5976 16.4833 25.6635C16.5374 25.9901 16.3572 26.2609 16.8167 26.4919C21.9706 23.951 28.9626 18.5346 26.0883 12.8236H26.0793ZM1.67032 40.9805C0.877413 41.108 0.913455 44.0073 0.985537 44.6047C1.5622 49.4396 6.617 53.7328 10.942 56.2976C15.3841 50.4671 7.52704 43.2984 1.67933 40.9805H1.67032ZM26.2235 22.119C21.9526 24.3492 15.5012 28.3477 16.231 33.2384C21.6823 33.3419 30.4133 27.153 26.2235 22.119ZM16.9789 36.2492C15.5733 37.6989 13.8613 40.2637 13.9784 42.2311C14.0595 43.7126 14.3569 44.1427 15.9157 43.6967C21.0425 42.2231 29.4131 36.8944 26.1965 31.3586C23.0338 31.6931 19.0513 34.1305 16.9879 36.2492H16.9789ZM11.2753 62.9804C11.0501 60.6147 9.68952 57.9145 8.04063 56.0507C7.22069 55.1187 2.03975 50.5627 1.10267 51.3034C-0.275909 55.8993 2.83266 62.1122 7.38288 64.5097C10.095 65.9355 11.5817 66.1983 11.2843 62.9883L11.2753 62.9804ZM15.2309 46.8588C13.6541 48.7068 12.762 51.1123 13.591 53.3903C14.1677 54.0673 16.8888 52.7212 17.5015 52.4026C20.9254 50.6264 25.0071 47.1774 25.7189 43.5772C26.2775 40.7495 25.0341 40.6141 22.3941 41.57C19.7541 42.5258 16.9518 44.8436 15.2309 46.8588ZM9.53634 75.2229C13.0143 70.2446 5.94122 64.677 1.5622 62.1679C-1.36616 67.2497 3.64359 73.9484 9.53634 75.2229ZM41.4239 27.145C37.3963 29.9328 37.6216 33.7083 40.3066 37.1891C42.8926 34.4889 43.7576 30.2036 41.4239 27.145ZM35.6213 32.7844C33.0263 35.5801 32.9182 37.5874 34.0715 40.8849C34.2967 41.5222 35.7654 44.987 36.2159 45.0428C39.0632 41.2434 40.4508 35.8987 35.6123 32.7844H35.6213ZM44.2351 32.872C47.6951 31.0639 51.6146 26.7388 49.4611 23.0668C45.2173 24.3572 42.352 29.0965 44.2351 32.872ZM31.2963 38.9733C27.6741 42.4541 28.395 47.8226 32.0982 51.0406C35.4411 47.4642 34.6662 42.3426 31.2963 38.9733ZM23.6826 50.7777C19.709 52.0601 15.9157 54.6966 13.8793 58.026C13.0053 59.4598 12.1313 61.8334 13.4378 63.2432C14.438 63.9521 18.0241 61.8095 18.8891 61.1404C21.7363 58.942 26.0973 54.1231 23.6826 50.7777ZM1.90459 71.6385C-0.969705 76.6964 3.2201 83.8332 9.15791 85.3626C12.699 80.2887 6.21153 74.5777 1.90459 71.6385ZM43.4332 35.2058C41.3068 37.6909 40.3787 40.8372 45.2713 39.0052C47.5419 38.1529 49.6864 36.2253 50.6145 34.1942C51.083 33.1587 51.6597 31.9321 50.0018 31.7648C47.8032 31.5418 44.6857 33.7402 43.4332 35.2058ZM36.0628 47.0898C36.3241 48.2289 40.7842 47.0819 41.6041 46.7394C44.8929 45.4012 48.4159 42.5178 48.0105 39.053C42.9827 39.8654 37.9189 42.7329 36.0628 47.0819V47.0898ZM14.0415 66.0231C12.2485 67.9984 10.6446 70.9854 12.5458 73.3112C16.6905 73.2953 25.2774 64.7725 22.6103 61.6422C22.1058 60.9413 19.8352 61.9768 19.1233 62.3272C17.3213 63.2193 15.33 64.6053 14.0415 66.031V66.0231ZM32.9542 52.6097C32.6749 52.9681 31.6117 55.3816 31.8459 55.5887C36.5764 55.0232 43.0007 52.8248 43.4693 48.0138C39.4687 47.2093 35.1527 49.7821 32.9452 52.6017L32.9542 52.6097ZM29.0707 60.2722C28.377 61.1643 28.0976 62.5582 27.9715 63.6256C32.5127 62.5343 39.7029 60.0492 39.1894 54.9594C35.387 55.3736 31.2873 57.4525 29.0707 60.2722ZM20.4028 71.065C15.5282 73.3829 8.31094 77.7239 11.6448 83.3075C15.6363 82.5429 18.9521 78.9028 20.2496 75.6211C20.5109 74.9521 21.6012 71.2482 20.4028 71.065ZM25.4035 67.3772C24.5926 68.3648 24.2592 69.5198 24.2953 70.7305C28.5031 69.7747 33.8372 67.4727 34.2697 63.1875C31.5126 62.829 26.9713 65.4814 25.4035 67.3772ZM29.6474 70.2128C26.2775 71.527 20.9344 72.9926 21.484 77.0389C24.8179 77.9948 28.3499 75.0875 29.5843 72.5306C29.7375 72.212 30.2511 70.2207 29.6474 70.2128Z" stroke="white" stroke-width="1.40067" stroke-miterlimit="10"/>
<path d="M24.9971 44.9233C29.0337 48.5395 30.187 55.3816 28.2138 58.7031" stroke="white" stroke-width="2.85453" stroke-miterlimit="10"/>
<path d="M36.0632 142.473C19.0427 125.236 12.7445 104.662 11.3479 82.2163C10.1225 60.5829 13.1319 38.6945 17.7092 17.4753C14.8168 38.8538 12.1498 60.5749 13.4833 82.1128C14.1861 94.1243 16.3216 106.319 20.8177 117.701C24.3768 126.614 29.6659 134.882 36.0632 142.473Z" fill="white"/>
<path d="M13.9973 95.4783C17.5023 74.4104 28.6301 52.9681 43.1818 36.0819C44.1909 34.935 45.2091 33.7959 46.2363 32.6729C45.3893 33.9154 44.5333 35.158 43.6683 36.3846C30.7475 54.7284 20.4757 74.6175 13.9883 95.4863L13.9973 95.4783Z" fill="white"/>
<path d="M23.7009 66.8913L23.1152 63.0521L23.4216 67.7276L23.5748 68.8746L23.4666 69.7747L24.5569 66.1107" fill="white"/>
<path d="M23.7009 66.8913L23.1152 63.0521L23.4216 67.7276L23.5748 68.8746L23.4666 69.7747L24.5569 66.1107" stroke="white" stroke-width="3.57259" stroke-miterlimit="10"/>
<path d="M22.3122 66.7718L21.9248 70.5553" stroke="white" stroke-width="3.57259" stroke-miterlimit="10"/>
<path d="M138.514 87.9831C138.514 89.6319 139.893 90.986 142.01 90.986C143.497 90.986 144.821 90.4603 145.596 89.5841L146.299 90.1497C145.389 91.3763 143.785 92.5631 140.884 92.5631C137.739 92.5631 135.838 90.8267 135.838 88.7239C135.838 86.7645 137.234 85.275 140.307 84.1917L140.74 84.7493C139.037 85.6015 138.514 86.8361 138.514 87.9831ZM139.397 84.3749C138.244 83.1403 137.829 82.065 137.829 80.9658C137.829 78.9825 139.568 77.7479 142.082 77.7479C144.596 77.7479 146.02 78.871 146.02 80.5038C146.02 82.0491 144.767 83.1164 141.956 84.2634L141.451 83.7377C143.001 82.6385 143.92 81.5393 143.92 80.3764C143.92 79.2135 143.163 78.5683 142.055 78.5683C140.947 78.5683 140.127 79.3409 140.127 80.3843C140.127 81.0773 140.325 81.7305 141.1 82.6703C141.821 83.4908 142.479 84.128 144.299 85.8883C146.371 87.8875 147.623 89.0266 149.93 91.217L148.434 90.5798L151.777 91.0895L151.624 92.2923C150.705 92.4835 150.2 92.5551 149.525 92.5551C148.182 92.5551 147.29 92.2923 146.344 91.4958C144.857 90.1656 143.713 88.931 142.596 87.792C141.055 86.1432 140.271 85.275 139.388 84.3749H139.397ZM148.705 83.7536H150.209C149.507 86.183 148.533 87.8398 146.966 89.6877L146.164 89.2018C147.488 87.4813 148.218 85.96 148.705 83.7536ZM149.056 84.351L146.704 84.0165V83.1084H151.831V84.0165L149.561 84.351H149.056Z" fill="white"/>
</svg>
